ply
format ascii 1.0
element vertex 377
property float x
property float y
property float z
end_header
0.077844 -0.104783 2.05511
0.0674933 -0.10429 2.05748
0.0706746 -0.104109 2.05428
0.0738611 -0.104217 2.05585
0.106209 -0.103815 2.04803
0.0809047 -0.103562 2.05547
0.0847746 -0.102274 2.05424
0.0301743 -0.10322 2.08574
0.076909 -0.101545 2.05231
0.08142 -0.101684 2.05506
0.0799116 -0.0998868 2.05653
0.0262886 -0.100659 2.08523
0.0293945 -0.100066 2.08547
0.075053 -0.0965295 2.05058
-0.00580918 -0.0983795 2.10298
0.0607712 -0.0960672 2.054
0.0535036 -0.0958428 2.06193
0.000250571 -0.0962718 2.09861
0.0482566 -0.0946442 2.0631
0.0515035 -0.0939281 2.06082
0.110433 -0.0926894 2.03358
0.110897 -0.0915575 2.0359
0.0760753 -0.0901877 2.04667
0.114786 -0.0895447 2.03213
0.127888 -0.0888038 2.02868
0.0681922 -0.0884669 2.04952
0.147217 -0.0842359 2.02204
0.0365336 -0.0833938 2.0615
0.0658221 -0.0783674 2.04293
0.0762799 -0.0783679 2.04298
0.14927 -0.0774674 2.02032
0.107933 -0.0770631 2.02494
0.138615 -0.0767801 2.01749
0.0827373 -0.0766686 2.03106
0.0105731 -0.0746192 2.04159
0.0661266 -0.0735423 2.04591
0.0619512 -0.0722538 2.04402
0.0709842 -0.0701878 2.03758
0.102132 -0.0690059 2.02093
0.0717027 -0.0682933 2.03567
0.0666259 -0.0677532 2.03816
0.0826967 -0.0669337 2.03142
0.0436043 -0.0652627 2.01775
0.0622948 -0.065935 2.03884
0.0597767 -0.064101 2.03909
0.0831415 -0.063851 2.03072
0.0553181 -0.0628176 2.03738
0.0904177 -0.0623585 2.02241
0.0369178 -0.0611773 2.00361
0.0759051 -0.0621008 2.03337
0.0685448 -0.0615004 2.03374
0.0832166 -0.0613584 2.02884
0.00163147 -0.0605904 2.02447
0.0366784 -0.0600501 2.00578
0.0646442 -0.060794 2.03075
-0.00234171 -0.0600135 2.02518
0.0086068 -0.0597476 2.01624
0.0328413 -0.059684 2.01423
0.0557188 -0.0603054 2.03553
0.106083 -0.0590827 2.01405
-0.00308016 -0.0575643 2.02487
0.130537 -0.0572388 2.01273
0.00194201 -0.0568495 2.02095
0.0606106 -0.056639 2.01302
5.08188e-05 -0.056214 2.02002
0.0375484 -0.0554513 2.01474
0.00597948 -0.0549143 2.01712
0.0144724 -0.0548919 2.01635
-0.00471107 -0.0543124 2.01693
0.000461915 -0.0543205 2.01684
0.0725418 -0.0546341 2.02878
0.139415 -0.054165 2.01122
0.116522 -0.0535203 2.01041
0.123175 -0.0535107 2.01007
0.00346606 -0.0530978 2.01734
0.00464053 -0.052479 2.01694
0.00665437 -0.0524058 2.01386
0.0436859 -0.0523685 2.01253
0.0742536 -0.0527791 2.02799
0.112442 -0.0516973 2.00963
0.121185 -0.0516626 2.0089
0.127614 -0.0510927 2.00963
0.0439028 -0.050425 2.0069
0.112289 -0.0505598 2.01182
0.00652269 -0.049967 2.01338
0.0984028 -0.049394 2.01363
0.0202916 -0.0486808 2.00963
0.0402129 -0.0486239 2.00739
0.0540505 -0.0486897 2.01043
0.0591511 -0.0487868 2.01422
0.062434 -0.0483189 1.99446
0.151541 -0.048687 2.00954
0.045569 -0.0479838 2.00598
0.047668 -0.0479617 2.00559
0.132855 -0.0481269 2.01139
0.152256 -0.0480794 2.01072
0.0245463 -0.0475006 2.01085
0.133559 -0.0475198 2.01257
0.15678 -0.0468304 2.00788
0.0315648 -0.0461818 2.00644
0.0107574 -0.0456544 2.01012
0.0821313 -0.0459403 2.02192
0.0336559 -0.0449939 2.00681
0.0772998 -0.0446427 2.01913
0.00136227 -0.0439175 2.01309
0.0597603 -0.0436835 2.00292
0.161087 -0.0437079 2.00364
0.0214394 -0.0431803 2.00683
-0.0161275 -0.0428604 2.02095
0.0187548 -0.042624 2.00847
0.0431774 -0.0425414 2.00525
0.0771617 -0.042907 2.02246
0.0256919 -0.0419984 2.00804
0.0301372 -0.0419382 2.00585
0.0340293 -0.041927 2.00481
0.0513717 -0.0419368 2.00577
0.140177 -0.0419279 2.00439
0.0157423 -0.0414332 2.01039
0.0530598 -0.0412935 2.00398
0.00873049 -0.0408424 2.01057
0.0177581 -0.0407965 2.00842
0.105425 -0.0408136 2.0102
0.152166 -0.0407914 2.00902
0.0306388 -0.0401145 2.00533
0.0936312 -0.0403436 2.0152
0.117511 -0.0402227 2.00945
0.154966 -0.0401416 2.00694
0.0261614 -0.0395654 2.00739
0.0453392 -0.0394702 2.00282
0.147156 -0.0394665 2.00216
0.159072 -0.039502 2.00295
0.0958764 -0.0390626 2.01335
0.11555 -0.0389897 2.00839
0.120791 -0.0389375 2.00587
0.154044 -0.0388673 2.00151
0.16112 -0.0388715 2.00243
-0.0725134 -0.0389549 2.03849
-0.0192294 -0.0385177 2.01543
0.0997216 -0.0384465 2.01218
0.138392 -0.0382578 2.00285
0.15005 -0.0382407 2.00119
0.157676 -0.0383084 2.00439
-0.00690439 -0.0378331 2.01101
0.117466 -0.0377267 2.0065
0.0234555 -0.0370748 2.00376
0.0331059 -0.0370542 2.00271
0.0799899 -0.0373474 2.01792
0.0972669 -0.0372405 2.01249
0.157226 -0.0369849 1.99781
0.161468 -0.0370633 2.0033
-0.0729345 -0.0369685 2.03052
-0.0250904 -0.0361218 2.01765
0.0259058 -0.0358991 2.00539
0.0330404 -0.0358428 2.00245
0.0872181 -0.0361179 2.01717
0.140041 -0.0358264 2.0019
0.158043 -0.035793 2.00007
-0.0269164 -0.0355431 2.0192
-0.00794102 -0.0353963 2.01083
0.020709 -0.0353015 2.00514
0.147682 -0.0352142 1.9997
-0.0604162 -0.0352273 2.03608
0.0607571 -0.0349328 2.01959
-0.0622698 -0.0346882 2.04019
0.00525978 -0.0341232 2.00741
0.0496366 -0.0334497 2.0028
-0.0334342 -0.0331357 2.0201
0.10167 -0.0323559 2.00884
-0.0311211 -0.0318626 2.01677
-0.0238416 -0.0318494 2.01482
0.00215555 -0.0317466 2.00862
0.0232913 -0.0310987 2.00594
-0.0314411 -0.0306931 2.01897
-0.0112687 -0.0305424 2.00905
0.0117942 -0.029929 2.0084
-0.0751849 -0.0296069 2.02796
-0.05032 -0.0296406 2.02948
0.0392559 -0.0291807 1.99921
0.116072 -0.0292046 2.00088
0.123243 -0.0279887 2.00012
0.0813481 -0.0276269 2.01641
-0.0731708 -0.0271919 2.02934
-0.00674284 -0.0269841 2.01327
-0.104274 -0.0263426 2.01142
0.0527535 -0.0275531 2.10455
0.104106 -0.0262652 2.00409
-0.071741 -0.0253418 2.02869
-0.0754585 -0.0247407 2.02944
0.0801085 -0.0245374 2.01357
0.0959662 -0.0244606 2.00573
0.0584051 -0.0221825 2.01951
0.00348723 -0.021478 2.00818
0.0863992 -0.0208809 2.00969
0.0364627 -0.02012 1.99366
0.109089 -0.0195384 1.99761
0.0971562 -0.0190189 2.00401
0.104696 -0.018973 1.99967
0.0870646 -0.0184509 2.00757
-0.103817 -0.0178369 2.00798
0.125632 -0.0177067 1.99033
-0.101444 -0.01662 2.00713
0.0120094 -0.0165501 1.99873
0.0606125 -0.0166032 2.00468
0.115856 -0.0153195 1.99345
0.125771 -0.014688 1.98965
0.0856038 -0.013606 2.00673
0.0980526 -0.0135736 2.00245
0.123513 -0.0134946 1.98853
0.0797858 -0.0130129 2.00661
0.100694 -0.0129346 1.99788
-0.100187 -0.0117815 2.00555
-0.0490104 -0.0107843 2.04247
0.0855316 -0.0105873 2.00725
0.094129 -0.00936904 2.00085
0.0687205 -0.00877187 2.00306
0.135174 -0.00869055 1.98572
-0.0655643 -0.00829909 2.03958
0.110896 -0.00811644 1.99144
0.0185981 -0.00751011 1.99219
0.117796 -0.00750154 1.99098
0.0798377 -0.0069806 2.00622
0.142861 -0.00629864 1.98187
0.106123 -0.0057235 1.99323
0.134418 -0.00569728 1.98512
0.150186 -0.00568054 1.98004
0.0917802 -0.00453086 2.00028
-0.0503459 -0.00340729 2.04089
0.12231 -0.00273576 1.98579
0.103954 -0.00210875 1.99418
0.122997 -0.0021107 1.98693
0.0837285 -0.00153793 2.00387
0.0732133 -0.000922678 2.00638
0.0814217 -0.000916197 2.00185
-0.0675381 -0.000339933 2.04033
0.0851295 0.000287037 2.00317
0.0872177 0.00027348 2.00255
0.0995418 0.000268028 1.99313
0.118595 0.000256166 1.98589
0.095509 0.0014677 1.99631
0.0791543 0.00208586 2.0015
0.00050423 0.00268374 1.99874
0.0108855 0.00267011 1.9924
0.0742552 0.00328056 2.00606
0.0891526 0.00328783 1.99748
-0.00447043 0.0038665 1.9969
0.0793245 0.00389603 2.00478
0.088973 0.00447896 1.99962
0.147348 0.00444318 1.98164
0.00118362 0.00507653 1.99534
-0.00746523 0.0056781 2.00089
0.0847216 0.00568599 2.00033
0.114742 0.00564027 1.98536
-0.0171035 0.00629231 2.00556
-0.0104434 0.00628746 2.00396
0.0504866 0.00629534 1.99838
0.00529164 0.00685323 1.99365
0.0831301 0.00750769 2.00034
0.088111 0.00748644 1.99775
0.0920824 0.00744857 1.99404
-0.105587 0.0081137 2.0038
0.101263 0.0080296 1.98787
-0.0163639 0.00871213 2.0036
0.112796 0.00862993 1.98501
0.0292499 0.00943934 2.03351
-0.00981448 0.00988441 2.00022
-0.00295587 0.0098779 1.99618
0.10094 0.0104419 1.98865
-0.103796 0.0119116 2.03666
0.0181757 0.0116274 1.98799
0.111333 0.0116123 1.98328
0.0990439 0.0122099 1.98839
0.125325 0.0128073 1.98456
-0.00195219 0.0134782 1.99495
0.0997856 0.0134476 1.99062
-0.0206691 0.0147254 2.00164
-0.00184821 0.0146212 1.99052
0.0901904 0.0146622 1.99262
0.10905 0.0151793 1.98271
-0.0436761 0.0160322 2.01569
-0.02077 0.0165306 2.00116
0.0135145 0.0164231 1.99017
-0.00844457 0.0170871 1.99666
0.00562259 0.0170286 1.99066
0.100451 0.0187796 1.98619
-0.0176419 0.0195081 1.99821
-0.0582839 0.0203076 2.01922
-0.0675229 0.0209489 2.02256
0.11181 0.0205441 1.98176
-0.0706355 0.021552 2.02188
-0.0115455 0.0212124 1.9909
0.107736 0.0211619 1.98384
-0.0768199 0.0221119 2.01686
-0.0694575 0.0220928 2.01508
-0.00972947 0.022451 1.99284
0.0898448 0.0224039 1.98785
-0.0821053 0.0233285 2.01769
0.0729492 0.0231135 1.99813
0.112704 0.0241225 1.98291
0.11838 0.0253248 1.98254
0.101413 0.0259009 1.98251
0.0866086 0.0266214 1.99111
0.0901894 0.0265491 1.98633
0.116041 0.0265055 1.9838
0.0136828 0.027834 1.9919
0.0975578 0.0277306 1.98429
0.107754 0.0277103 1.98306
0.014305 0.0289228 1.98606
0.100355 0.0288945 1.982
0.0718771 0.0296653 1.99499
0.0768715 0.0296146 1.99239
0.120167 0.030059 1.98058
0.0719813 0.0308975 1.99715
0.0128091 0.0325905 1.99049
-0.00142712 0.0332141 1.9924
-0.000221134 0.0332092 1.99211
0.0619363 0.0333203 1.99879
0.110986 0.0330152 1.98045
0.120758 0.0329898 1.97817
0.104323 0.0336185 1.98064
0.110481 0.0347943 1.97888
0.0717564 0.0363068 1.99687
0.0625123 0.0417312 1.99857
-0.0164557 0.0424546 2.00359
0.0666847 0.0423071 1.99736
0.0770555 0.0433417 1.98935
-0.00794874 0.0440372 1.99431
0.0657245 0.0447149 1.99803
0.0771652 0.044585 1.9915
0.0786317 0.0468708 1.98764
-0.0242326 0.0518207 2.0167
0.0682588 0.0514871 2.00327
-0.0242433 0.0537273 2.02001
0.059763 0.0532272 2.00084
-0.0225051 0.0545162 2.00476
0.0696917 0.0632438 1.99479
0.058486 0.0645423 1.99728
0.0510983 0.0657223 1.99721
0.0535906 0.0657741 1.9981
0.0608709 0.066349 1.99739
0.0477124 0.0681904 1.99866
0.0602287 0.0692276 1.99388
0.0637527 0.0691202 1.9915
0.0773773 0.0719574 1.98713
0.0546691 0.0728526 1.99512
0.0296031 0.0737124 2.00231
0.0371806 0.073657 2.00054
0.0383918 0.0736456 2.00024
0.0401728 0.074224 1.9996
0.0893927 0.0744547 1.98987
0.0719772 0.0750591 1.99003
0.0779546 0.0751583 1.99251
0.0412077 0.0759513 1.99745
0.0415793 0.0772482 1.99965
0.0480136 0.0782423 1.99485
0.0737759 0.0780966 1.99114
0.0661853 0.0785699 1.98768
0.0677829 0.0798169 1.98933
0.0883683 0.0797385 1.98701
0.0372247 0.0819283 1.99641
0.0696462 0.0813165 1.98185
0.0868186 0.0821491 1.98774
0.0534229 0.0834997 1.99155
0.0251084 0.0854348 2.00864
0.0559856 0.0846186 1.98933
0.0283102 0.0890143 2.00779
0.0303991 0.0908507 2.00806
-0.0306934 0.0927978 2.02407
0.0187364 0.0921456 2.01032
0.0570152 0.0910202 1.98538
0.0222477 0.0925831 2.00663
-0.0257494 0.102827 2.0299
0.0210359 0.101748 2.00885
0.0617336 0.100738 1.98851
0.0572612 0.108311 1.98516
0.0681399 0.108811 1.98351
-0.0467264 0.115267 2.02342
-0.022315 0.115641 2.02967
